<svg xmlns="http://www.w3.org/2000/svg" viewBox="0 0 111 102">
  <g fill="rgb(242,146,36)" fill-rule="nonzero">
    <path d="M.6 15.2c0-8.3 6.7-15 15-15s15 6.7 15 15-6.7 15-15 15-15-6.7-15-15zM95.7 30.2c-5.3 0-10-2.8-12.7-7-1.6-2.3-4.2-3.9-7.3-3.9-4.8 0-8.7 3.8-8.7 8.6s3.9 8.6 8.7 8.6h.1l-.1.1c8.2 0 14.9 6.7 14.9 15s-6.7 15-15 15c-5.5 0-10.3-3-12.9-7.4h-.1c-1.5-2.3-4.2-3.8-7.2-3.8-3.9 0-7.2 2.6-8.2 6.1 0 .1-.1.2-.1.3 0 .1-.1.2-.1.3 0 .2-.1.4-.1.6V63.6c0 4.6 3.8 8.3 8.5 8.3h.3c8.2.1 14.9 6.7 14.9 15s-6.7 15-15 15-15-6.7-15-15c0-2.7.7-5.3 2-7.5.7-1.3 1.1-2.7 1.1-4.2 0-4.7-3.9-8.6-8.7-8.6h-.1c-8-.3-14.4-6.9-14.4-15 0-8.3 6.7-15 15-15 5.3 0 9.9 2.7 12.6 6.8 1.6 2.4 4.3 3.9 7.4 3.9 4.9 0 8.8-3.8 8.8-8.6 0-4.7-4-8.6-8.8-8.6h-.1c-8.2-.1-14.9-6.7-14.9-15s6.7-15 15-15c5.3 0 10.3 4.1 12.7 6.8 1.9 2.2 4.3 3.9 7.4 3.9 3.1 0 5.8-1.5 7.4-3.9C85.7 2.8 90.3.1 95.6.1c8.3 0 15 6.7 15 15 .1 8.4-6.6 15.1-14.9 15.1z"/>
  </g>
</svg>
